# xmcd CD database file
# Copyright (C) 1993-1998 Ti Kan
# Generated: Thu Apr 2 13:33:28 1998 by KSCD
# 
# Track frame offsets:
#       182
#       18782
#       33907
#       50220
#       63870
#       80657
#       98335
#       117822
#       129282
#       148177
#
# Disc length: 2169 seconds
#
# Revision: 2
# Processed by: cddbd v1.4b41PL1 Copyright (c) Steve Scherf et al.
# Submitted via: Kscd 1.0
#
DISCID=7a08770a
DTITLE=Marstio - Ilon Sekunnit
DYEAR=1900
DGENRE=
TTITLE0=Tie
TTITLE1=Julia
TTITLE2=Surun Sydän
TTITLE3=Matalassa majassa
TTITLE4=Antikvariaatti
TTITLE5=Särkyneen toiveen katu
TTITLE6=Laulu Ystävälle
TTITLE7=Tuulee ja sataa
TTITLE8=Uneton yö
TTITLE9=Tyhjä tarina
EXTD=
EXTT0=
EXTT1=
EXTT2=
EXTT3=
EXTT4=
EXTT5=
EXTT6=
EXTT7=
EXTT8=
EXTT9=
PLAYORDER=
